<svg xmlns="http://www.w3.org/2000/svg" xmlns:xlink="http://www.w3.org/1999/xlink" width="162" zoomAndPan="magnify" viewBox="0 0 121.92 791.999998" height="1056" preserveAspectRatio="xMidYMid meet" version="1.0"><defs><g/><clipPath id="f06b58cd8f"><path d="M 0 0.257812 L 121.839844 0.257812 L 121.839844 791.738281 L 0 791.738281 Z M 0 0.257812 " clip-rule="nonzero"/></clipPath><clipPath id="a0e09cd3f8"><path d="M 0 0.257812 L 121.839844 0.257812 L 121.839844 790.121094 L 0 790.121094 Z M 0 0.257812 " clip-rule="nonzero"/></clipPath><clipPath id="5ffb9ebe66"><path d="M 0 0.257812 L 121.664062 0.257812 L 121.664062 790.121094 L 0 790.121094 Z M 0 0.257812 " clip-rule="nonzero"/></clipPath><clipPath id="f8129b7796"><path d="M 0 0.257812 L 121.664062 0.257812 L 121.664062 790 L 0 790 Z M 0 0.257812 " clip-rule="nonzero"/></clipPath></defs><g clip-path="url(#f06b58cd8f)"><path fill="#ffffff" d="M 0 0.257812 L 121.921875 0.257812 L 121.921875 3997.441406 L 0 3997.441406 Z M 0 0.257812 " fill-opacity="1" fill-rule="nonzero"/></g><g clip-path="url(#a0e09cd3f8)"><path fill="#ffffff" d="M 0 0.257812 L 121.921875 0.257812 L 121.921875 790.121094 L 0 790.121094 Z M 0 0.257812 " fill-opacity="1" fill-rule="nonzero"/><path fill="#ffffff" d="M 0 0.257812 L 121.921875 0.257812 L 121.921875 790.121094 L 0 790.121094 Z M 0 0.257812 " fill-opacity="1" fill-rule="nonzero"/></g><g clip-path="url(#5ffb9ebe66)"><path fill="#ede3c5" d="M -575.449219 0.261719 L 121.664062 0.261719 L 121.664062 790.121094 L -575.449219 790.121094 Z M -575.449219 0.261719 " fill-opacity="1" fill-rule="nonzero"/></g><g clip-path="url(#f8129b7796)"><path fill="#242423" d="M 0.285156 757.394531 L 121.664062 757.394531 L 121.664062 789.441406 L 0.285156 789.441406 Z M 0.6875 56.601562 L 3.660156 56.601562 L 3.660156 123.824219 L 0.6875 123.824219 Z M 118.289062 56.601562 L 121.261719 56.601562 L 121.261719 123.824219 L 118.289062 123.824219 Z M 111.375 56.601562 L 114.347656 56.601562 L 114.347656 123.824219 L 111.375 123.824219 Z M 104.453125 56.601562 L 107.425781 56.601562 L 107.425781 123.824219 L 104.453125 123.824219 Z M 97.539062 56.601562 L 100.511719 56.601562 L 100.511719 123.824219 L 97.539062 123.824219 Z M 90.625 56.601562 L 93.597656 56.601562 L 93.597656 123.824219 L 90.625 123.824219 Z M 83.714844 56.601562 L 86.683594 56.601562 L 86.683594 123.824219 L 83.714844 123.824219 Z M 76.800781 56.601562 L 79.773438 56.601562 L 79.773438 123.824219 L 76.800781 123.824219 Z M 69.886719 56.601562 L 72.859375 56.601562 L 72.859375 123.824219 L 69.886719 123.824219 Z M 62.972656 56.601562 L 65.945312 56.601562 L 65.945312 123.824219 L 62.972656 123.824219 Z M 56.058594 56.601562 L 59.03125 56.601562 L 59.03125 123.824219 L 56.058594 123.824219 Z M 49.144531 56.601562 L 52.117188 56.601562 L 52.117188 123.824219 L 49.144531 123.824219 Z M 42.234375 56.601562 L 45.203125 56.601562 L 45.203125 123.824219 L 42.234375 123.824219 Z M 35.320312 56.601562 L 38.292969 56.601562 L 38.292969 123.824219 L 35.320312 123.824219 Z M 28.40625 56.601562 L 31.378906 56.601562 L 31.378906 123.824219 L 28.40625 123.824219 Z M 21.492188 56.601562 L 24.464844 56.601562 L 24.464844 123.824219 L 21.492188 123.824219 Z M 14.578125 56.601562 L 17.550781 56.601562 L 17.550781 123.824219 L 14.578125 123.824219 Z M 7.664062 56.601562 L 10.636719 56.601562 L 10.636719 123.824219 L 7.664062 123.824219 Z M 0.742188 370.460938 L 3.714844 370.460938 L 3.714844 583.175781 L 0.742188 583.175781 Z M 118.34375 370.460938 L 121.316406 370.460938 L 121.316406 583.175781 L 118.34375 583.175781 Z M 111.433594 370.460938 L 114.40625 370.460938 L 114.40625 583.175781 L 111.433594 583.175781 Z M 104.519531 370.460938 L 107.492188 370.460938 L 107.492188 583.175781 L 104.519531 583.175781 Z M 97.605469 370.460938 L 100.578125 370.460938 L 100.578125 583.175781 L 97.605469 583.175781 Z M 90.691406 370.460938 L 93.664062 370.460938 L 93.664062 583.175781 L 90.691406 583.175781 Z M 83.777344 370.460938 L 86.75 370.460938 L 86.75 583.175781 L 83.777344 583.175781 Z M 76.863281 370.460938 L 79.835938 370.460938 L 79.835938 520.089844 L 76.863281 520.089844 Z M 79.835938 556.429688 L 79.835938 583.175781 L 76.863281 583.175781 L 76.863281 556.429688 Z M 69.953125 370.460938 L 72.921875 370.460938 L 72.921875 520.089844 L 69.953125 520.089844 Z M 72.921875 556.429688 L 72.921875 583.175781 L 69.953125 583.175781 L 69.953125 556.429688 Z M 63.039062 370.460938 L 66.011719 370.460938 L 66.011719 520.089844 L 63.039062 520.089844 Z M 66.011719 556.429688 L 66.011719 583.175781 L 63.039062 583.175781 L 63.039062 556.429688 Z M 56.125 370.460938 L 59.097656 370.460938 L 59.097656 520.089844 L 56.125 520.089844 Z M 59.097656 556.429688 L 59.097656 583.175781 L 56.125 583.175781 L 56.125 556.429688 Z M 49.210938 370.460938 L 52.183594 370.460938 L 52.183594 520.089844 L 49.210938 520.089844 Z M 52.183594 556.429688 L 52.183594 583.175781 L 49.210938 583.175781 L 49.210938 556.429688 Z M 42.296875 370.460938 L 45.269531 370.460938 L 45.269531 520.089844 L 42.296875 520.089844 Z M 45.269531 556.429688 L 45.269531 583.175781 L 42.296875 583.175781 L 42.296875 556.429688 Z M 35.382812 370.460938 L 38.355469 370.460938 L 38.355469 583.175781 L 35.382812 583.175781 Z M 28.460938 370.460938 L 31.433594 370.460938 L 31.433594 583.175781 L 28.460938 583.175781 Z M 21.546875 370.460938 L 24.519531 370.460938 L 24.519531 583.175781 L 21.546875 583.175781 Z M 14.632812 370.460938 L 17.605469 370.460938 L 17.605469 583.175781 L 14.632812 583.175781 Z M 7.722656 370.460938 L 10.691406 370.460938 L 10.691406 583.175781 L 7.722656 583.175781 Z M 0.40625 0.941406 L 121.785156 0.941406 L 121.785156 29.277344 L 0.40625 29.277344 Z M 0.40625 38.5 L 121.785156 38.5 L 121.785156 48.355469 L 0.40625 48.355469 Z M 0.40625 132.617188 L 121.785156 132.617188 L 121.785156 142.472656 L 0.40625 142.472656 Z M 0.40625 151.480469 L 121.785156 151.480469 L 121.785156 341.210938 L 0.40625 341.210938 Z M 0.40625 350.21875 L 121.785156 350.21875 L 121.785156 360.074219 L 0.40625 360.074219 Z M 100.828125 738.746094 L 121.160156 738.746094 L 121.160156 748.601562 L 100.828125 748.601562 Z M 20.738281 738.746094 L 0.40625 738.746094 L 0.40625 748.601562 L 20.738281 748.601562 Z M 20.738281 738.746094 " fill-opacity="1" fill-rule="nonzero"/></g><path fill="#ede3c5" d="M 43.035156 195.65625 L 45.484375 194.582031 L 44.90625 181.578125 L 45.792969 180.84375 L 45.792969 179.007812 L 34.621094 179.007812 L 34.097656 177.84375 L 33.578125 177.84375 L 32.71875 181.449219 L 42.445312 181.449219 L 43.035156 195.644531 Z M 33.335938 195.65625 L 35.785156 194.582031 C 36.0625 191.25 36.335938 188.285156 36.640625 184.914062 L 34.191406 185.714844 Z M 33.335938 195.65625 Z M 33.335938 195.65625 " fill-opacity="1" fill-rule="nonzero"/><path fill="#ede3c5" d="M 47.535156 195.039062 L 55.976562 195.039062 L 55.976562 180.414062 C 55.976562 179.707031 55.546875 179.007812 54.625 179.007812 L 51.503906 179.007812 L 50.953125 177.84375 L 50.460938 177.84375 L 49.601562 181.449219 L 52.722656 181.449219 C 53.394531 181.449219 53.523438 181.636719 53.523438 182.398438 L 53.523438 192.589844 L 48.074219 192.589844 L 47.523438 195.039062 Z M 47.535156 195.039062 Z M 47.535156 195.039062 " fill-opacity="1" fill-rule="nonzero"/><path fill="#ede3c5" d="M 60.476562 182.472656 L 61.269531 195.871094 L 72.558594 193.605469 L 74.917969 179.015625 L 72.53125 179.015625 C 71.863281 183.117188 71.152344 187.429688 70.511719 191.527344 L 63.53125 192.878906 L 63.382812 190.121094 L 67.667969 189.265625 L 69.195312 179.015625 L 66.8125 179.015625 L 65.5625 187.214844 L 63.207031 187.671875 L 62.75 180.425781 C 62.722656 179.714844 62.292969 179.015625 61.371094 179.015625 L 60.085938 179.015625 L 59.5625 177.851562 L 59.039062 177.851562 L 58.183594 181.457031 L 59.683594 181.457031 C 60.269531 181.457031 60.449219 181.765625 60.484375 182.472656 Z M 60.476562 182.472656 Z M 60.476562 182.472656 " fill-opacity="1" fill-rule="nonzero"/><path fill="#ede3c5" d="M 76.390625 195.65625 L 78.894531 194.613281 C 79.660156 190.328125 80.425781 185.707031 81.160156 181.457031 L 85.046875 181.457031 C 85.59375 181.457031 86.023438 181.886719 86.0625 182.621094 L 86.488281 192.597656 L 82.578125 192.597656 L 81.867188 195.050781 L 89.0625 195.050781 L 88.417969 180.917969 C 88.390625 180.152344 88.054688 179.015625 86.703125 179.015625 L 78.8125 179.015625 L 78.261719 177.851562 L 77.769531 177.851562 L 76.910156 181.457031 L 78.652344 181.457031 Z M 76.390625 195.65625 Z M 76.390625 195.65625 " fill-opacity="1" fill-rule="nonzero"/><path fill="#ede3c5" d="M 46.777344 223.910156 L 49.230469 222.839844 L 48.652344 209.832031 L 49.539062 209.097656 L 49.539062 207.261719 L 38.367188 207.261719 L 37.84375 206.097656 L 37.320312 206.097656 L 36.464844 209.703125 L 46.191406 209.703125 L 46.777344 223.898438 Z M 37.078125 223.910156 L 39.53125 222.839844 C 39.808594 219.503906 40.082031 216.539062 40.386719 213.167969 L 37.9375 213.96875 Z M 37.078125 223.910156 Z M 37.078125 223.910156 " fill-opacity="1" fill-rule="nonzero"/><path fill="#ede3c5" d="M 58.863281 210.753906 L 58.863281 223.910156 L 61.3125 222.839844 L 61.3125 209.65625 C 61.3125 208.613281 60.550781 207.273438 58.984375 207.273438 L 53.171875 207.273438 L 52.648438 206.105469 L 52.128906 206.105469 L 51.269531 209.710938 L 58.0625 209.710938 C 58.761719 209.710938 58.863281 209.925781 58.863281 210.753906 Z M 58.863281 210.753906 Z M 58.863281 210.753906 " fill-opacity="1" fill-rule="nonzero"/><path fill="#ede3c5" d="M 66.234375 210.753906 L 66.234375 223.910156 L 68.683594 222.839844 L 68.683594 208.640625 C 68.683594 207.933594 68.226562 207.261719 67.304688 207.261719 L 65.347656 207.261719 L 64.828125 206.097656 L 64.332031 206.097656 L 63.476562 209.703125 L 65.433594 209.703125 C 66.140625 209.703125 66.234375 209.917969 66.234375 210.746094 Z M 66.234375 210.753906 Z M 66.234375 210.753906 " fill-opacity="1" fill-rule="nonzero"/><path fill="#ede3c5" d="M 82.335938 210.753906 L 82.335938 223.910156 L 84.785156 222.839844 L 84.785156 208.640625 C 84.785156 207.933594 84.355469 207.261719 83.433594 207.261719 L 73.707031 207.261719 L 73.15625 206.097656 L 72.664062 206.097656 L 71.804688 209.703125 L 74.136719 209.703125 L 74.136719 220.84375 L 71.75 220.84375 L 70.890625 223.292969 L 76.613281 223.292969 L 76.613281 209.710938 L 81.542969 209.710938 C 82.25 209.710938 82.34375 210.019531 82.34375 210.753906 Z M 82.335938 210.753906 Z M 82.335938 210.753906 " fill-opacity="1" fill-rule="nonzero"/><path fill="#242423" d="M 29.28125 741.1875 L 29.28125 747.808594 L 35.820312 747.808594 L 35.820312 740.554688 C 35.820312 739.78125 35.039062 739.128906 34.285156 739.128906 L 29.710938 739.128906 L 29.410156 738.496094 L 28.835938 738.496094 L 28.21875 740.945312 L 29.085938 740.945312 C 29.261719 740.945312 29.28125 740.992188 29.28125 741.175781 Z M 31.097656 745.992188 L 31.097656 740.953125 L 33.996094 740.953125 L 33.996094 745.992188 Z M 31.097656 745.992188 Z M 31.097656 745.992188 " fill-opacity="1" fill-rule="nonzero"/><path fill="#242423" d="M 38.347656 748.210938 L 43.183594 747.066406 L 44.542969 739.136719 L 42.726562 739.136719 C 42.363281 741.261719 41.980469 743.460938 41.636719 745.574219 L 40.835938 745.742188 L 39.988281 740.105469 C 39.902344 739.621094 39.671875 739.128906 39.007812 739.128906 L 38.441406 739.128906 L 38.125 738.496094 L 37.546875 738.496094 L 36.929688 740.945312 L 37.929688 740.945312 C 38.140625 740.945312 38.253906 741.027344 38.292969 741.203125 L 39.074219 746.125 L 37.480469 746.488281 L 38.335938 748.191406 Z M 38.347656 748.210938 Z M 38.347656 748.210938 " fill-opacity="1" fill-rule="nonzero"/><path fill="#242423" d="M 47.320312 748.136719 L 49.445312 747.410156 L 51.855469 739.128906 L 47.152344 739.128906 L 47.152344 736.640625 L 44.980469 737.152344 L 44.980469 737.785156 L 45.613281 738.085938 L 45.613281 740.953125 L 49.445312 740.953125 Z M 47.320312 748.136719 Z M 47.320312 748.136719 " fill-opacity="1" fill-rule="nonzero"/><path fill="#242423" d="M 57.792969 741.1875 L 57.792969 747.808594 L 64.332031 747.808594 L 64.332031 740.554688 C 64.332031 739.78125 63.558594 739.128906 62.796875 739.128906 L 58.222656 739.128906 L 57.921875 738.496094 L 57.34375 738.496094 L 56.730469 740.945312 L 57.597656 740.945312 C 57.773438 740.945312 57.792969 740.992188 57.792969 741.175781 Z M 59.609375 745.992188 L 59.609375 740.953125 L 62.507812 740.953125 L 62.507812 745.992188 Z M 59.609375 745.992188 Z M 59.609375 745.992188 " fill-opacity="1" fill-rule="nonzero"/><path fill="#242423" d="M 65.65625 741.875 L 66.875 741.875 L 67.40625 739.128906 L 65.65625 739.128906 Z M 67.742188 741.875 L 68.964844 741.875 L 69.496094 739.128906 L 67.734375 739.128906 L 67.734375 741.875 Z M 67.742188 741.875 Z M 67.742188 741.875 " fill-opacity="1" fill-rule="nonzero"/><path fill="#242423" d="M 70.40625 747.808594 L 77.359375 747.808594 L 77.789062 745.992188 L 76.828125 745.992188 L 76.566406 740.125 C 76.546875 739.613281 76.242188 739.128906 75.570312 739.128906 L 72.605469 739.128906 L 72.289062 738.496094 L 71.710938 738.496094 L 71.097656 740.945312 L 74.574219 740.945312 C 74.757812 740.945312 74.789062 741.027344 74.789062 741.175781 L 75 745.984375 L 70.855469 745.984375 L 70.390625 747.800781 Z M 70.40625 747.808594 Z M 70.40625 747.808594 " fill-opacity="1" fill-rule="nonzero"/><path fill="#242423" d="M 78.652344 748.136719 L 80.5625 747.390625 C 80.964844 745.238281 81.375 743.105469 81.792969 740.945312 L 83.730469 740.945312 C 83.898438 740.945312 84.019531 741.074219 84.03125 741.269531 L 84.246094 745.972656 L 82.15625 745.972656 L 81.644531 747.792969 L 86.164062 747.792969 L 85.78125 740.367188 C 85.753906 739.855469 85.546875 739.109375 84.625 739.109375 L 80.453125 739.109375 L 80.152344 738.476562 L 79.558594 738.476562 L 78.941406 740.925781 L 79.929688 740.925781 L 78.652344 748.109375 Z M 78.652344 748.136719 Z M 78.652344 748.136719 " fill-opacity="1" fill-rule="nonzero"/><path fill="#242423" d="M 91.261719 741.1875 L 91.261719 748.136719 L 93.085938 747.390625 L 93.085938 740.644531 C 93.085938 739.984375 92.59375 739.128906 91.558594 739.128906 L 88.539062 739.128906 L 88.222656 738.496094 L 87.644531 738.496094 L 87.011719 740.945312 L 91.054688 740.945312 C 91.1875 740.945312 91.25 741.027344 91.25 741.175781 Z M 91.261719 741.1875 Z M 91.261719 741.1875 " fill-opacity="1" fill-rule="nonzero"/><path fill="#1a1a1a" d="M 71.890625 644.6875 C 71.890625 645.925781 73.351562 646.6875 73.929688 647.546875 C 73.78125 648.09375 73.371094 648.65625 73.109375 649.183594 C 72.226562 650.964844 71.300781 655.714844 72.300781 657.785156 C 73.425781 657.691406 73.605469 656.824219 74.488281 655.269531 C 75.726562 653.105469 74.152344 649.902344 76.109375 647.265625 C 77.546875 645.339844 80.042969 644.957031 81.792969 646.214844 C 82.847656 646.96875 82.734375 649.632812 82.949219 651.609375 C 83.003906 652.121094 83.136719 652.378906 83.125 653.070312 C 83.097656 653.992188 82.941406 653.777344 82.910156 654.710938 C 80.621094 654.710938 77.535156 654.152344 76.324219 655.269531 C 75.652344 655.875 75.335938 656.46875 74.628906 657.046875 C 73.324219 658.128906 74.125 658.269531 73.734375 659.21875 C 76.6875 658.527344 73.332031 658.183594 79.457031 658.195312 C 80.695312 658.203125 81.710938 658.164062 82.726562 657.996094 C 83.722656 657.832031 83.683594 657.699219 84.449219 656.246094 C 85.390625 654.46875 86.078125 653.535156 85.660156 650.730469 C 85.492188 649.625 85.613281 648.476562 85.578125 647.332031 C 85.539062 646.195312 85.363281 645.476562 85.363281 644.0625 C 84.03125 643.355469 84.746094 643.261719 83.507812 642.851562 C 81.8125 642.28125 81.039062 641.40625 79.640625 641.40625 C 78.8125 641.40625 78.496094 642.421875 77.964844 643 C 77.394531 643.613281 76.816406 644.015625 76.378906 644.6875 L 75.671875 643.960938 C 75.363281 643.597656 75.335938 643.53125 75.011719 643.195312 C 74.460938 642.636719 73.949219 642.226562 73.734375 641.40625 C 73.007812 641.789062 72.792969 641.769531 72.503906 642.628906 C 72.363281 643.046875 71.898438 644.324219 71.898438 644.675781 Z M 23.925781 714.246094 L 23.925781 627.136719 C 25.433594 627.332031 26.820312 628.429688 28.050781 629.015625 C 29.421875 629.679688 31.015625 630.125 32.730469 630.292969 C 40.648438 631.09375 43.898438 626.335938 52.84375 626.519531 C 58.875 626.640625 60.121094 629.921875 61.101562 630.320312 C 61.753906 627.984375 66.429688 626.605469 69.113281 626.457031 C 76.574219 626.035156 81.226562 630.945312 88.996094 630.300781 C 91.464844 630.097656 93.703125 629.242188 95.761719 628.085938 C 98.445312 626.566406 98.015625 626.621094 98.015625 632.484375 L 98.015625 714.234375 C 96.152344 714.609375 93.691406 716.742188 89.097656 716.863281 C 78.710938 717.125 75.867188 713.84375 69.179688 713.601562 C 63.644531 713.398438 61.808594 716.445312 60.738281 716.835938 C 59.664062 715.613281 59.898438 715.484375 57.355469 714.421875 C 50.488281 711.535156 41.859375 717.710938 32.785156 716.929688 C 30.351562 716.714844 28.050781 716.175781 25.910156 715.128906 C 25.191406 714.777344 24.734375 714.402344 23.90625 714.234375 Z M 46.554688 624.210938 L 41.21875 626.035156 C 39.4375 626.679688 37.601562 627.332031 35.515625 627.453125 C 31.675781 627.683594 30.09375 626.921875 27.089844 625.214844 C 25.488281 624.304688 25.105469 624.527344 24.605469 624.285156 C 20.503906 623.894531 21.054688 627.722656 21.054688 629.773438 L 21.054688 711.46875 C 21.054688 712.699219 20.878906 714.582031 21.398438 715.558594 C 22.015625 716.714844 22.832031 716.808594 24.082031 717.421875 C 32.09375 721.371094 38.570312 719.734375 46.714844 717.671875 C 48.886719 717.125 52.304688 716.230469 54.652344 716.613281 C 55.585938 716.761719 57.355469 717.449219 57.902344 717.90625 C 58.3125 718.242188 58.257812 718.679688 58.929688 719.15625 C 60.753906 720.460938 62.449219 719.378906 63.652344 718.269531 C 64.378906 717.597656 65.433594 717.050781 66.664062 716.734375 C 70.9375 715.605469 77.089844 718.597656 81.609375 719.324219 C 83.898438 719.6875 87.914062 719.898438 90.261719 719.675781 C 92.835938 719.433594 95.203125 718.632812 97.25 717.671875 C 98.414062 717.132812 99.46875 716.890625 100.195312 716.070312 C 101.109375 715.046875 100.902344 713.78125 100.902344 712.222656 L 100.902344 630.527344 C 100.902344 627.359375 101.007812 624.992188 98.097656 624.332031 C 94.429688 624.0625 92.246094 629.148438 83.574219 626.976562 C 78.410156 625.683594 75.914062 623.4375 68.871094 623.585938 C 66.363281 623.875 64.835938 624.089844 62.617188 625.234375 C 61.957031 625.570312 61.464844 625.886719 60.867188 626.214844 C 59.804688 625.644531 59.992188 625.410156 58.101562 624.628906 C 56.992188 624.171875 55.835938 623.914062 54.550781 623.746094 C 50.871094 623.269531 47.488281 624.292969 46.566406 624.199219 L 46.574219 624.199219 Z M 30.25 636.179688 C 30.902344 636.207031 31.695312 636.433594 32.394531 636.507812 C 38.1875 637.207031 41.171875 635.921875 46.460938 634.011719 C 51.316406 632.269531 53.84375 631.589844 57.839844 634.421875 C 58.964844 635.222656 59.488281 636.085938 60.960938 636.117188 C 62.878906 636.144531 63.207031 634.8125 64.042969 634.289062 C 64.964844 633.722656 66.160156 633.078125 67.378906 632.742188 C 70.316406 631.921875 72.867188 633.210938 75.355469 634.011719 C 77.84375 634.8125 80.089844 635.753906 82.808594 636.292969 C 86.769531 637.085938 88.261719 636.554688 91.679688 636.199219 L 91.679688 710.257812 C 84.078125 713.695312 73.679688 705.285156 64.148438 708.375 C 62.125 709.027344 62.339844 709.195312 60.960938 709.785156 C 58.398438 708.617188 57.074219 707.828125 53.710938 707.726562 C 45.269531 707.472656 36.679688 713.304688 30.25 710.25 L 30.25 636.179688 L 30.242188 636.179688 Z M 60.980469 633.210938 L 59.515625 632.101562 C 57.707031 630.917969 56.824219 630.015625 53.90625 629.707031 C 46.433594 628.90625 39.605469 636.433594 29.449219 632.957031 C 28.742188 632.714844 28.097656 632.390625 27.371094 632.257812 L 27.371094 712.054688 C 28.507812 712.410156 29.496094 713.230469 30.996094 713.640625 C 35.167969 714.777344 40.425781 713.230469 44.414062 712.148438 C 47.246094 711.386719 50.144531 710.648438 53.273438 710.59375 C 55.433594 710.558594 57.660156 711.238281 59.441406 712.253906 C 60 712.578125 60.484375 713.144531 61.070312 713.359375 C 68.320312 707.074219 77.332031 713.222656 86.144531 713.929688 C 91.613281 714.367188 92.628906 712.652344 94.558594 712.046875 L 94.566406 632.269531 C 93.925781 632.453125 93.320312 632.761719 92.628906 632.984375 C 91.894531 633.226562 91.214844 633.375 90.457031 633.507812 C 88.882812 633.777344 87.003906 633.890625 85.390625 633.722656 C 76.289062 632.734375 71.394531 627.03125 64.082031 630.953125 C 63.046875 631.503906 62.144531 632.015625 61.304688 632.847656 C 61.117188 633.042969 61.191406 633.023438 60.980469 633.210938 Z M 38.804688 611.316406 C 38.804688 605.839844 45.746094 606.519531 45.746094 611.113281 C 45.746094 615.59375 38.804688 615.5 38.804688 611.316406 Z M 36.148438 611.113281 C 36.148438 612.714844 37.117188 614.578125 38.066406 615.332031 C 45.054688 620.847656 51.371094 611.894531 46.5 606.679688 L 44.972656 605.550781 C 43.714844 604.890625 43.246094 604.972656 41.878906 604.972656 C 38.71875 604.972656 36.15625 607.945312 36.15625 611.113281 Z M 76.167969 610.90625 C 76.167969 609.398438 77.171875 608.09375 78.441406 607.648438 C 82.417969 606.230469 85.140625 611.726562 81.625 613.917969 C 79.363281 615.332031 76.175781 613.980469 76.175781 610.90625 Z M 79.847656 617.046875 C 83.042969 617.046875 85.761719 614.167969 85.761719 610.90625 C 85.761719 608.148438 83.125 604.972656 80.453125 604.972656 C 78.441406 604.972656 77.03125 604.9375 75.4375 606.695312 C 73.847656 608.457031 73.714844 609.082031 73.714844 611.316406 C 73.714844 614.570312 76.566406 617.046875 79.835938 617.046875 Z M 34.3125 609.882812 C 34.3125 608.632812 34.628906 607.832031 35.179688 607.058594 C 35.46875 606.667969 35.644531 606.390625 36 606.042969 C 36.269531 605.785156 36.167969 605.894531 36.4375 605.664062 C 37.796875 604.527344 39.996094 603.53125 42.269531 603.53125 C 47.609375 603.53125 49.808594 604.257812 54.269531 607.257812 C 54.96875 607.730469 55.714844 608.132812 56.3125 608.691406 C 56.644531 609.015625 56.785156 609.203125 57.140625 609.492188 C 57.539062 609.816406 57.625 609.816406 58.042969 610.226562 L 60.617188 613.359375 C 61.257812 614.382812 60.8125 613.691406 62.5625 611.605469 L 67.695312 607.125 C 68.664062 606.445312 70.910156 605.132812 72.039062 604.722656 C 73.910156 604.050781 74.917969 603.519531 77.574219 603.519531 C 80.910156 603.519531 82.128906 603.425781 84.972656 605.316406 C 91.558594 609.707031 84.03125 617.886719 82.277344 620.511719 C 77.414062 618.171875 66.664062 617.242188 61.25 617.242188 C 56.011719 617.242188 44.449219 618.183594 39.605469 620.511719 L 38.710938 619.355469 C 37.851562 618.433594 36.976562 617 36.25 615.890625 C 35.375 614.570312 34.292969 611.894531 34.292969 609.863281 L 34.304688 609.863281 Z M 52.480469 602.71875 C 52.695312 601.816406 53.085938 601.136719 53.765625 600.519531 C 53.925781 600.371094 54.523438 599.933594 54.699219 599.820312 C 58.425781 597.34375 68.226562 597.539062 69.429688 602.71875 C 68.757812 602.894531 68.84375 603.074219 68.132812 603.464844 C 67.59375 603.761719 67.425781 603.828125 66.980469 604.144531 C 66.597656 604.414062 66.34375 604.648438 65.917969 604.925781 C 62.191406 607.347656 62.042969 608.253906 60.847656 609.0625 C 59.636719 607.246094 54.625 603.855469 52.480469 602.71875 Z M 63.101562 595.144531 L 58.816406 595.144531 L 58.378906 595.324219 C 58.332031 595.339844 58.265625 595.351562 58.222656 595.371094 C 55.734375 596.058594 55.976562 595.789062 53.320312 597.398438 C 53.191406 597.484375 50.144531 599.617188 49.640625 601.488281 C 47.804688 601.441406 44.246094 599.71875 38.328125 601.199219 C 36.707031 601.609375 35.125 602.347656 34.070312 603.277344 C 33.761719 603.546875 33.53125 603.808594 33.269531 604.105469 L 32.5625 605.03125 C 29.261719 610.050781 31.804688 615.324219 34.59375 619.234375 C 35.246094 620.140625 38.347656 624.15625 39.027344 624.609375 C 41.179688 623.167969 45.808594 621.863281 48.886719 621.398438 C 56.191406 620.289062 65.953125 620.101562 73.242188 621.425781 C 76.195312 621.964844 79.417969 622.730469 82.046875 624.0625 C 82.660156 624.367188 82.707031 624.378906 83.125 624.816406 C 83.339844 624.015625 85.289062 621.9375 85.835938 621.191406 C 88.34375 617.808594 92.339844 612.964844 90.550781 607.332031 C 88.746094 601.621094 83.304688 600.6875 78.226562 600.660156 C 74.816406 600.640625 74.070312 601.351562 72.503906 601.480469 C 71.898438 600.566406 71.628906 600.082031 70.828125 599.28125 C 70.484375 598.9375 70.257812 598.675781 69.90625 598.359375 C 66.921875 595.703125 63.496094 595.378906 63.121094 595.136719 L 63.113281 595.136719 Z M 67.800781 679.480469 C 68.738281 679.394531 70.074219 677.671875 70.605469 676.769531 C 71.453125 675.316406 71.265625 675.457031 71.265625 673.75 C 71.265625 671.8125 71.164062 670.445312 71.078125 668.597656 C 71.011719 667.324219 70.621094 667.480469 70.128906 668.28125 C 69.71875 668.945312 69.785156 669.398438 69.316406 670.144531 C 69.066406 670.554688 69.019531 670.546875 68.832031 670.890625 C 68.777344 670.992188 68.648438 671.28125 68.636719 671.308594 L 68.496094 671.582031 C 68.46875 671.625 68.367188 671.777344 68.339844 671.832031 C 67.9375 672.511719 68.117188 671.683594 68.003906 672.714844 C 67.835938 674.179688 68.480469 678.054688 67.800781 679.46875 Z M 69.632812 688.488281 C 68.535156 689.679688 67.753906 695.316406 67.789062 697.496094 L 68.179688 702.636719 C 68.3125 703.804688 67.6875 707.890625 69.160156 706.261719 L 70.527344 703.710938 C 70.753906 703.300781 70.96875 703.066406 71.078125 702.816406 C 71.453125 701.996094 70.632812 692.34375 70.679688 689.914062 C 70.6875 689.128906 70.632812 687.417969 69.644531 688.496094 Z M 64.324219 644.277344 C 64.324219 644.976562 65.890625 645.933594 66.773438 646.519531 C 66.710938 647.378906 66.363281 648.085938 66.363281 648.980469 C 66.363281 651.972656 66.597656 654.335938 66.558594 657.179688 C 66.53125 659.421875 66.785156 659.375 67.875 657.875 C 68.777344 656.648438 69.421875 656.378906 69.421875 654.71875 C 69.421875 652.707031 68.589844 647.472656 68.925781 646.242188 C 69.261719 645.03125 70.417969 644.191406 69.253906 643.027344 C 68.84375 642.628906 68.3125 642.628906 67.855469 642.171875 C 67.277344 641.601562 67.546875 641.265625 66.558594 641.007812 C 66.046875 641.351562 64.316406 643.523438 64.316406 644.285156 L 64.324219 644.285156 Z M 43.292969 696.675781 L 43.292969 704.660156 C 43.292969 705.90625 43.5 706.160156 43.5 707.324219 C 44.664062 706.710938 44.582031 706.832031 45.25 705.601562 C 45.558594 705.023438 45.511719 704.921875 45.867188 704.378906 C 46.75 703.011719 46.566406 704.277344 46.566406 700.773438 C 46.566406 699.621094 46.582031 698.445312 46.574219 697.28125 L 46.15625 690.734375 C 46.0625 688.972656 46.796875 689.140625 45.960938 687.875 C 44.328125 688.3125 45.25 689.113281 43.984375 691.628906 C 43.351562 692.875 43.304688 694.960938 43.304688 696.675781 L 43.304688 696.6875 Z M 58.203125 685.421875 C 58.203125 686.039062 58.910156 686.402344 59.339844 686.738281 C 59.917969 687.183594 60.09375 687.5 60.652344 687.875 C 59.871094 691.246094 60.039062 695.679688 60.039062 699.339844 C 60.039062 700.003906 60.214844 699.488281 60.449219 700.367188 L 60.859375 700.367188 C 61.117188 699.648438 60.859375 700.273438 61.25 699.730469 C 61.472656 699.414062 61.511719 699.40625 61.761719 699.015625 C 62.238281 698.296875 63.289062 696.566406 63.222656 695.734375 L 62.898438 691.355469 C 62.871094 690.554688 62.945312 689.679688 62.898438 688.886719 C 62.804688 687.425781 62.441406 688.160156 63.085938 687.042969 C 64.035156 685.375 63.949219 684.910156 62.980469 684.324219 C 62.246094 683.875 62.535156 684.164062 61.964844 683.496094 C 61.269531 682.664062 60.738281 682.542969 60.457031 681.332031 C 59.359375 681.585938 59.441406 682.089844 59.023438 682.972656 C 58.769531 683.496094 58.210938 684.707031 58.210938 685.433594 Z M 53.917969 664.742188 C 53.917969 666.875 57.476562 666.113281 58.648438 665.992188 C 59.675781 665.886719 59.917969 666.175781 61.054688 666.175781 L 61.464844 672.316406 C 61.574219 674.367188 61.464844 676.769531 61.464844 678.863281 C 62.980469 678.0625 64.527344 675.109375 64.527344 674.980469 C 64.527344 672.894531 64.621094 664.109375 64.054688 663.167969 C 63.464844 662.191406 62.300781 662.488281 60.847656 662.496094 C 59.488281 662.496094 58.128906 662.496094 56.757812 662.496094 C 56.507812 662.023438 56.402344 661.964844 56.347656 661.269531 C 54.652344 661.667969 53.898438 664.332031 53.898438 664.75 L 53.898438 664.742188 Z M 76.574219 686.234375 C 77.191406 686.234375 76.753906 686.039062 77.238281 686.792969 C 79.621094 690.507812 74.125 690.445312 74.125 697.078125 C 74.125 698.007812 74.46875 697.988281 74.125 698.714844 C 74.191406 698.699219 77.125 697.066406 77.460938 696.324219 C 78.160156 694.75 75.671875 694.160156 80.574219 688.199219 C 81.894531 686.585938 80.265625 683.914062 79.074219 682.683594 C 78.496094 682.097656 78.441406 682.238281 77.589844 682.300781 C 65.078125 683.316406 70.128906 682.394531 67.59375 681.726562 C 66.980469 682.171875 66.316406 684.34375 66.300781 684.492188 C 66.222656 684.964844 66.625 686.417969 68.394531 686.449219 C 69.859375 686.476562 71.164062 686.382812 72.328125 686.261719 C 73.519531 686.132812 75.316406 686.234375 76.585938 686.234375 Z M 43.292969 686.644531 L 52.480469 686.4375 C 52.789062 687.027344 53.433594 688.171875 53.160156 688.964844 C 53.03125 689.355469 51.914062 690.761719 51.605469 691.097656 C 49.324219 693.640625 49.210938 694.738281 49.210938 697.699219 C 49.210938 698.371094 49.386719 697.859375 49.621094 698.726562 C 50.730469 698.464844 51.1875 697.644531 51.921875 696.9375 C 53.765625 695.140625 51.886719 695.519531 53.132812 692.222656 C 53.765625 690.574219 54.417969 691.039062 56.191406 688.730469 C 56.421875 688.421875 56.757812 687.808594 56.859375 687.34375 C 56.992188 686.746094 56.507812 685.84375 56.097656 685.070312 L 54.96875 683.121094 C 54.160156 682.125 49.796875 682.964844 47.367188 682.964844 C 45.914062 682.964844 45.242188 682.757812 43.695312 682.757812 C 43.535156 682.179688 43.789062 682.496094 43.21875 682.03125 C 42.410156 681.363281 43.507812 682.171875 42.476562 681.742188 C 42.082031 683.421875 39.699219 686.652344 43.292969 686.652344 Z M 42.882812 642.226562 L 38.804688 642.023438 C 38.441406 641.265625 38.636719 640.792969 37.582031 640.792969 C 37.023438 640.792969 34.863281 643.875 35.980469 645.246094 C 37.257812 646.800781 39.753906 645.90625 43.5 645.90625 L 43.5 659.210938 C 45.839844 657.960938 46.761719 655.410156 46.761719 652.660156 L 46.574219 646.734375 C 46.835938 644.898438 48.808594 645.328125 48.808594 642.832031 C 48.808594 641.976562 47.292969 642.011719 46.359375 642.011719 C 46.144531 641.109375 46.203125 641.054688 45.746094 640.371094 C 44.777344 640.632812 43.621094 642.21875 42.894531 642.21875 L 42.894531 642.207031 Z M 69.632812 662.28125 C 69.261719 661.585938 69.390625 661.59375 68.816406 661.054688 C 67.632812 661.15625 67.585938 661.640625 67.183594 662.488281 C 66.914062 663.046875 66.375 663.949219 66.375 664.742188 C 66.375 664.957031 67.472656 666.167969 67.902344 666.289062 L 73.742188 665.980469 C 74.84375 665.886719 75.503906 666.175781 76.789062 666.175781 C 76.789062 669.121094 77.210938 673.0625 77.199219 675.800781 C 77.191406 677.96875 77.386719 678.121094 77.40625 679.078125 C 78.214844 678.53125 80.472656 675.800781 80.472656 673.964844 C 80.472656 669.929688 79.257812 666.445312 80.75 664.425781 C 81.308594 663.671875 81.488281 663.738281 81.488281 662.710938 C 80.609375 662.246094 80.789062 662.300781 79.652344 662.300781 C 79.652344 661.164062 79.707031 661.332031 79.242188 660.457031 C 76.957031 661.667969 78.699219 662.292969 75.160156 662.300781 C 73.910156 662.300781 73.613281 662.542969 72.503906 662.515625 C 71.453125 662.496094 70.957031 662.300781 69.644531 662.300781 Z M 42.269531 666.382812 L 45.734375 666.382812 C 46.984375 666.382812 47.226562 666.175781 48.390625 666.175781 C 48.6875 666.625 49.007812 666.855469 49.007812 667.613281 C 49.007812 676.003906 49.6875 674.988281 46.144531 674.980469 C 44.925781 674.980469 43.695312 674.980469 42.476562 674.980469 C 41.589844 676.304688 42.1875 675.957031 40.703125 678.101562 C 40.398438 678.539062 40.582031 678.351562 40.433594 679.078125 C 41.804688 678.96875 42.007812 678.222656 45.121094 678.472656 C 49.042969 678.800781 47.246094 678.4375 50.859375 678.472656 C 51.902344 678.484375 52.136719 678.660156 53.085938 677.636719 L 54.261719 675.746094 C 54.792969 674.914062 54.914062 675.269531 54.941406 674.167969 C 53.226562 673.769531 54.867188 674.578125 52.285156 674.578125 C 52.285156 672.835938 52.082031 671.597656 52.082031 669.671875 C 52.082031 668.050781 52.183594 666.113281 52.097656 664.539062 C 52.015625 662.925781 50.777344 662.273438 49.238281 662.292969 C 47.46875 662.300781 45.6875 662.300781 43.917969 662.300781 C 43.621094 661.191406 43.246094 661.511719 42.699219 661.277344 C 41.867188 662.851562 40.433594 664.902344 41.625 666.027344 C 41.886719 666.269531 41.824219 666.390625 42.289062 666.390625 L 42.277344 666.390625 Z M 52.480469 646.324219 C 60.699219 646.324219 59.832031 644.75 59.832031 651.652344 C 59.832031 652.78125 55.015625 654.792969 54.101562 654.316406 C 53.3125 653.910156 52.855469 652.324219 52.640625 651.496094 C 52.257812 649.941406 51.699219 647.957031 52.480469 646.335938 Z M 51.261719 645.914062 C 50.28125 647.378906 49.015625 649 49.015625 651.234375 C 49.015625 651.914062 50.589844 656.5625 50.925781 657.09375 C 52.265625 659.171875 54.269531 658.210938 56.507812 657.316406 L 60.101562 655.203125 C 60.484375 654.785156 60.652344 654.503906 60.980469 654.03125 C 63.085938 650.863281 62.898438 648.46875 62.898438 644.898438 C 62.898438 643.875 62.703125 642.886719 62.050781 642.496094 C 61.601562 642.21875 61.789062 642.386719 60.867188 642.441406 L 55.949219 642.664062 C 54.632812 642.65625 54.113281 642.449219 52.6875 642.449219 C 52.21875 641.566406 52.546875 641.6875 51.660156 641.21875 L 50.105469 643.355469 C 49.808594 644.648438 50.972656 645.503906 51.261719 645.933594 Z M 51.261719 645.914062 " fill-opacity="1" fill-rule="evenodd"/><g fill="#1a1a1a" fill-opacity="1"><g transform="translate(56.209552, 547.870419)"><g><path d="M 3.71875 0.613281 L 7.101562 -0.738281 L 6.515625 -12.726562 L 8.207031 -12.726562 L 9.066406 -16.105469 L 3.503906 -16.105469 L 2.921875 -17.273438 L 1.84375 -17.273438 L 0.707031 -12.726562 L 3.105469 -12.726562 Z M 3.71875 0.613281 "/></g></g></g><g fill="#ede3c5" fill-opacity="1"><g transform="translate(48.623934, 301.511126)"><g><path d="M 5.066406 -7.640625 L 5.066406 0.371094 L 6.558594 -0.28125 L 6.558594 -8.308594 C 6.558594 -8.945312 6.09375 -9.761719 5.140625 -9.761719 L 1.601562 -9.761719 L 1.285156 -10.472656 L 0.96875 -10.472656 L 0.445312 -8.273438 L 4.582031 -8.273438 C 5.011719 -8.273438 5.066406 -8.140625 5.066406 -7.640625 Z M 5.066406 -7.640625 "/></g></g></g><g fill="#ede3c5" fill-opacity="1"><g transform="translate(56.20605, 301.511126)"><g><path d="M 0.445312 0.410156 L 7.621094 -0.746094 L 7.621094 -8.160156 C 7.621094 -9.128906 7.210938 -9.761719 6.335938 -9.761719 L 1.714844 -9.761719 L 1.378906 -10.472656 L 1.082031 -10.472656 L 0.558594 -8.273438 L 1.492188 -8.273438 L 1.492188 -4.136719 L 2.980469 -4.789062 L 2.980469 -8.273438 L 6.109375 -8.273438 L 6.109375 -2.03125 L 0.894531 -1.171875 Z M 0.445312 0.410156 "/></g></g></g><g fill="#ede3c5" fill-opacity="1"><g transform="translate(64.850028, 301.511126)"><g><path d="M 1.84375 -7.65625 L 2.328125 0.523438 L 7.566406 -0.820312 L 8.980469 -9.761719 L 1.601562 -9.761719 L 1.265625 -10.472656 L 0.96875 -10.472656 L 0.445312 -8.273438 L 1.359375 -8.273438 C 1.789062 -8.273438 1.824219 -8.125 1.84375 -7.65625 Z M 3.261719 -8.273438 L 7.246094 -8.273438 L 6.261719 -2.011719 L 3.726562 -1.398438 Z M 3.261719 -8.273438 "/></g></g></g><g fill="#ede3c5" fill-opacity="1"><g transform="translate(33.629365, 321.706461)"><g><path d="M 8.515625 0.441406 L 11.074219 -0.582031 L 10.628906 -9.722656 L 11.304688 -10.234375 L 11.304688 -12.1875 L 2.582031 -12.1875 L 2.140625 -13.074219 L 1.324219 -13.074219 L 0.464844 -9.628906 L 8.070312 -9.628906 Z M 0.859375 0.464844 L 3.417969 -0.582031 L 4.164062 -8.304688 L 1.605469 -7.535156 Z M 0.859375 0.464844 "/></g></g></g><g fill="#ede3c5" fill-opacity="1"><g transform="translate(45.746568, 321.706461)"><g><path d="M 2.328125 -9.28125 L 2.976562 0.628906 L 12.257812 -1.09375 L 14.191406 -12.1875 L 11.675781 -12.1875 L 10.097656 -3.28125 L 5.351562 -2.441406 L 5.234375 -4.070312 L 8.558594 -4.675781 L 9.792969 -12.1875 L 7.28125 -12.1875 L 6.351562 -6.816406 L 5.046875 -6.582031 L 4.746094 -10.792969 C 4.699219 -11.515625 4.304688 -12.1875 3.371094 -12.1875 L 2.582031 -12.1875 L 2.140625 -13.074219 L 1.324219 -13.074219 L 0.464844 -9.628906 L 2.046875 -9.628906 C 2.257812 -9.628906 2.304688 -9.492188 2.328125 -9.28125 Z M 2.328125 -9.28125 "/></g></g></g><g fill="#ede3c5" fill-opacity="1"><g transform="translate(60.561623, 321.706461)"><g><path d="M 2.652344 -9.304688 L 2.652344 0.464844 L 5.210938 -0.582031 L 5.210938 -10.769531 C 5.210938 -11.492188 4.769531 -12.1875 3.839844 -12.1875 L 2.582031 -12.1875 L 2.140625 -13.074219 L 1.324219 -13.074219 L 0.464844 -9.628906 L 2.371094 -9.628906 C 2.628906 -9.628906 2.652344 -9.5625 2.652344 -9.304688 Z M 2.652344 -9.304688 "/></g></g></g><g fill="#ede3c5" fill-opacity="1"><g transform="translate(66.864465, 321.706461)"><g><path d="M 5.535156 0.464844 L 8.09375 -0.582031 L 8.09375 -9.628906 L 9.117188 -9.628906 L 10.097656 -12.1875 L 2.582031 -12.1875 L 2.140625 -13.074219 L 1.324219 -13.074219 L 0.464844 -9.628906 L 5.535156 -9.628906 Z M 5.535156 0.464844 "/></g></g></g><g fill="#ede3c5" fill-opacity="1"><g transform="translate(77.469934, 321.706461)"><g><path d="M 5.234375 -0.417969 L 8.257812 -1.628906 L 11.234375 -12.1875 L 2.511719 -12.1875 L 2.09375 -13.074219 L 1.257812 -13.074219 L 0.394531 -9.628906 L 7.816406 -9.628906 Z M 1.09375 3.257812 L 3.628906 2.234375 L 3.628906 -8.234375 L 1.09375 -7.46875 Z M 1.09375 3.257812 "/></g></g></g></svg>